<?xml version="1.0" encoding="UTF-8"?><svg id="b" xmlns="http://www.w3.org/2000/svg" width="384.861" height="172.341" viewBox="0 0 384.861 172.341"><defs><style>.d{fill:#fff;}.e{fill:#a98a75;}.f{fill:#211715;}.g{fill:#ffda71;}.h{fill:#f2635f;}.i{fill:#cfcfcf;}</style></defs><g id="c"><path class="g" d="M51.502,71.839c-29,0-49.045,22.391-49.045,48.591,0,29.315,20.476,49.503,49.047,49.503,29.672,0,49.047-20.376,49.047-49.503,0-26.379-20.151-48.591-49.049-48.591Z"/><path class="f" d="M51.502,69.439c-11.156.037-22.305,3.315-31.258,10.078-8.477,6.403-14.738,15.31-17.88,25.467-6.237,20.163.022,44.024,16.969,57.033,8.244,6.328,18.411,9.616,28.728,10.217,10.661.621,21.694-1.457,30.992-6.838,8.514-4.927,15.292-12.586,19.213-21.601,4.287-9.859,5.636-20.99,4.031-31.611-1.57-10.395-6.471-20.255-13.847-27.751-7.514-7.636-17.512-12.656-28.087-14.286-2.936-.453-5.89-.697-8.861-.707-3.089-.01-3.093,4.79,0,4.8,10.258.034,20.264,3.046,28.538,9.179,7.573,5.614,13.184,13.794,15.966,22.774,5.566,17.967.573,39.589-14.241,51.573-7.185,5.812-16.486,8.93-25.717,9.604-9.796.716-19.826-.9-28.48-5.68-8.037-4.439-14.336-11.311-18.219-19.635-4.103-8.794-5.472-19.301-3.962-28.875,1.496-9.487,5.788-18.411,12.525-25.286,6.897-7.039,15.933-11.489,25.635-13.059,2.628-.425,5.295-.586,7.955-.595,3.088-.01,3.094-4.81,0-4.8Z"/><path class="f" d="M51.505,82.247c-8.31.037-16.637,2.447-23.325,7.466-6.406,4.807-11.146,11.47-13.543,19.122-4.714,15.047-.111,33.009,12.527,42.783,12.481,9.653,31.439,10.567,45.04,2.68,13.833-8.022,19.756-24.626,17.438-40-2.425-16.081-15.363-29.041-31.433-31.509-2.223-.341-4.454-.533-6.703-.543-3.089-.014-3.093,4.786,0,4.8,7.454.033,14.735,2.204,20.743,6.678,5.471,4.074,9.53,9.989,11.54,16.489,4.046,13.087.404,28.751-10.348,37.463-10.531,8.532-27.368,9.345-39.189,2.879-12.353-6.757-18.322-21.361-16.228-35.109,1.05-6.895,4.151-13.402,9.025-18.41,5.019-5.156,11.587-8.397,18.667-9.558,1.912-.314,3.855-.422,5.79-.43,3.088-.014,3.094-4.814,0-4.8Z"/><path class="d" d="M60.908,70.395v-5.539h-18.785v5.539"/><path class="d" d="M43.13,2.4v61.123h16.771V2.4h-16.771Z"/><path class="h" d="M29.955,2.4v48.955c4.056,4.056,8.112,8.112,12.168,12.168h1.007V2.4h-13.175Z"/><path class="h" d="M59.901,2.4v61.123h1.007c4.056-4.056,8.112-8.112,12.168-12.168V2.4h-13.175Z"/><path class="f" d="M27.555,2.4v48.451c0,2.071,1.776,3.275,3.137,4.636,3.126,3.126,6.19,6.334,9.387,9.387,1.282,1.224,2.466,1.051,4.063,1.051h5.761c3.54,0,7.09.075,10.629,0,.982-.021,1.691-.353,2.422-1.051,1.599-1.526,3.13-3.13,4.693-4.693l4.693-4.693c.751-.751,1.541-1.479,2.26-2.26.69-.75.877-1.478.877-2.464V2.4c0-1.297-1.1-2.4-2.4-2.4H29.955c-3.089,0-3.094,4.8,0,4.8h43.121l-2.4-2.4v48.955l.703-1.697c-4.056,4.056-8.112,8.112-12.168,12.168l1.697-.703c-6.262,0-12.523,0-18.785,0l1.697.703c-4.056-4.056-8.112-8.112-12.168-12.168l.703,1.697c0-13.384,0-26.768,0-40.152V2.4c0-3.089-4.8-3.094-4.8,0Z"/><path class="f" d="M40.73,2.4v61.123c0,3.089,4.8,3.094,4.8,0V2.4c0-3.089-4.8-3.094-4.8,0h0Z"/><path class="f" d="M57.501,2.4v61.123c0,3.089,4.8,3.094,4.8,0V2.4c0-3.089-4.8-3.094-4.8,0h0Z"/><path class="f" d="M39.716,64.856v5.539c0,.615.268,1.262.703,1.697.416.416,1.099.73,1.697.703,1.3-.058,2.4-1.055,2.4-2.4v-5.539c0-.615-.268-1.262-.703-1.697-.416-.416-1.099-.73-1.697-.703-1.3.058-2.4,1.055-2.4,2.4h0Z"/><path class="f" d="M63.315,70.395v-5.539c0-.615-.268-1.262-.703-1.697-.416-.416-1.099-.73-1.697-.703-1.3.058-2.4,1.055-2.4,2.4v5.539c0,.615.268,1.262.703,1.697.416.416,1.099.73,1.697.703,1.3-.058,2.4-1.055,2.4-2.4h0Z"/><path class="f" d="M55.82,131.886c0-5.896,0-11.792,0-17.688,0-1.501.048-2.953-.718-4.303-.69-1.216-1.936-2.11-3.279-2.454-1.263-.324-2.724-.154-4.014-.154-3.346,0-3.351,5.2,0,5.2.914,0,1.839-.044,2.752,0-.317-.015.21.134.089.026-.042-.038-.313-.171-.051-.004.207.131.034.024-.023-.108.159.371.038.029.043.357.017,1.285,0,2.57,0,3.855,0,5.091,0,10.182,0,15.274,0,3.346,5.2,3.351,5.2,0h0Z"/><path class="d" d="M183.072,72.04v-8.517h18.785v1.333s0,3.549.001,7.8c-3.011-.535-6.148-.816-9.396-.816s-6.383.281-9.391.819v-.62Z"/><path class="i" d="M192.463,71.841c-29,0-49.045,22.391-49.045,48.591,0,29.315,20.476,49.503,49.047,49.503,29.672,0,49.047-20.376,49.047-49.503,0-26.379-20.151-48.591-49.049-48.591Z"/><path class="f" d="M192.463,69.441c-11.156.037-22.305,3.315-31.258,10.078-8.477,6.403-14.738,15.31-17.88,25.467-6.237,20.163.022,44.024,16.969,57.033,8.244,6.328,18.411,9.616,28.728,10.217,10.661.621,21.694-1.457,30.992-6.838,8.514-4.927,15.292-12.586,19.213-21.601,4.287-9.859,5.636-20.99,4.031-31.611-1.57-10.395-6.471-20.255-13.847-27.751-7.514-7.636-17.512-12.656-28.087-14.286-2.936-.453-5.89-.697-8.861-.707-3.089-.01-3.093,4.79,0,4.8,10.258.034,20.264,3.046,28.538,9.179,7.573,5.614,13.184,13.794,15.966,22.774,5.566,17.967.573,39.589-14.241,51.573-7.185,5.812-16.486,8.93-25.717,9.604-9.796.716-19.826-.9-28.48-5.68-8.037-4.439-14.336-11.311-18.219-19.635-4.103-8.794-5.472-19.301-3.962-28.875,1.496-9.487,5.788-18.411,12.525-25.286,6.897-7.039,15.933-11.489,25.635-13.059,2.628-.425,5.295-.586,7.955-.595,3.088-.01,3.094-4.81,0-4.8Z"/><path class="f" d="M192.466,82.249c-8.31.037-16.637,2.447-23.325,7.466-6.406,4.807-11.146,11.47-13.543,19.122-4.714,15.047-.111,33.009,12.527,42.783,12.481,9.653,31.439,10.567,45.04,2.68,13.833-8.022,19.756-24.626,17.438-40-2.425-16.081-15.363-29.041-31.433-31.509-2.223-.341-4.454-.533-6.703-.543-3.089-.014-3.093,4.786,0,4.8,7.454.033,14.735,2.204,20.743,6.678,5.471,4.074,9.53,9.989,11.54,16.489,4.046,13.087.404,28.751-10.348,37.463-10.531,8.532-27.368,9.345-39.189,2.879-12.353-6.757-18.322-21.361-16.228-35.109,1.05-6.895,4.151-13.402,9.025-18.41,5.019-5.156,11.587-8.397,18.667-9.558,1.912-.314,3.855-.422,5.79-.43,3.088-.014,3.094-4.814,0-4.8Z"/><path class="d" d="M184.079,2.4v61.123h16.771V2.4h-16.771Z"/><path class="h" d="M170.904,2.4v48.955c4.056,4.056,8.112,8.112,12.168,12.168h1.007V2.4h-13.175Z"/><path class="h" d="M200.85,2.4v61.123h1.007c4.056-4.056,8.112-8.112,12.168-12.168V2.4h-13.175Z"/><path class="f" d="M168.504,2.4v48.451c0,2.071,1.776,3.275,3.137,4.636,3.126,3.126,6.19,6.334,9.387,9.387,1.282,1.224,2.466,1.051,4.063,1.051h5.761c3.54,0,7.09.075,10.629,0,.982-.021,1.691-.353,2.422-1.051,1.599-1.526,3.13-3.13,4.693-4.693l4.693-4.693c.751-.751,1.541-1.479,2.26-2.26.69-.75.877-1.478.877-2.464V2.4c0-1.297-1.1-2.4-2.4-2.4h-43.121c-3.089,0-3.094,4.8,0,4.8h43.121l-2.4-2.4v48.955l.703-1.697c-4.056,4.056-8.112,8.112-12.168,12.168l1.697-.703c-6.262,0-12.523,0-18.785,0l1.697.703c-4.056-4.056-8.112-8.112-12.168-12.168l.703,1.697V2.4c0-3.089-4.8-3.094-4.8,0Z"/><path class="f" d="M181.679,2.4v61.123c0,3.089,4.8,3.094,4.8,0V2.4c0-3.089-4.8-3.094-4.8,0h0Z"/><path class="f" d="M198.45,2.4v61.123c0,3.089,4.8,3.094,4.8,0V2.4c0-3.089-4.8-3.094-4.8,0h0Z"/><path class="f" d="M180.666,64.856v5.539c0,.615.268,1.262.703,1.697.416.416,1.099.73,1.697.703,1.3-.058,2.4-1.055,2.4-2.4v-5.539c0-.615-.268-1.262-.703-1.697-.416-.416-1.099-.73-1.697-.703-1.3.058-2.4,1.055-2.4,2.4h0Z"/><path class="f" d="M204.264,70.395v-5.539c0-.615-.268-1.262-.703-1.697-.416-.416-1.099-.73-1.697-.703-1.3.058-2.4,1.055-2.4,2.4v5.539c0,.615.268,1.262.703,1.697.416.416,1.099.73,1.697.703,1.3-.058,2.4-1.055,2.4-2.4h0Z"/><path class="f" d="M188.808,114.123c1.061-1.589,3.167-1.955,4.891-1.386,1.921.634,2.01,2.506,1.294,4.193-.884,2.082-2.698,3.903-4.265,5.641-2.247,2.492-4.495,4.985-6.742,7.477-1.477,1.638-.497,4.438,1.838,4.438,4.427,0,8.855,0,13.282,0,3.346,0,3.351-5.2,0-5.2-4.427,0-8.855,0-13.282,0l1.838,4.438c2.834-3.143,5.731-6.239,8.5-9.439,2.204-2.546,4.379-5.56,4.466-9.065.096-3.866-2.761-7.028-6.481-7.726-3.85-.723-7.638.72-9.83,4.002-.78,1.168-.228,2.878.933,3.557,1.275.746,2.775.238,3.557-.933h0Z"/><path class="e" d="M333.412,71.841c-29,0-49.045,22.391-49.045,48.591,0,29.315,20.476,49.503,49.047,49.503,29.672,0,49.047-20.376,49.047-49.503,0-26.379-20.151-48.591-49.049-48.591Z"/><path class="f" d="M333.412,69.441c-11.156.037-22.305,3.315-31.258,10.078-8.477,6.403-14.738,15.31-17.88,25.467-6.237,20.163.022,44.024,16.969,57.033,8.244,6.328,18.411,9.616,28.728,10.217,10.661.621,21.694-1.457,30.992-6.838,8.514-4.927,15.292-12.586,19.213-21.601,4.287-9.859,5.636-20.99,4.031-31.611-1.57-10.395-6.471-20.255-13.847-27.751-7.514-7.636-17.512-12.656-28.087-14.286-2.936-.453-5.89-.697-8.861-.707-3.089-.01-3.093,4.79,0,4.8,10.258.034,20.264,3.046,28.538,9.179,7.573,5.614,13.184,13.794,15.966,22.774,5.566,17.967.573,39.589-14.241,51.573-7.185,5.812-16.486,8.93-25.717,9.604-9.796.716-19.826-.9-28.48-5.68-8.037-4.439-14.336-11.311-18.219-19.635-4.103-8.794-5.472-19.301-3.962-28.875,1.496-9.487,5.788-18.411,12.525-25.286,6.897-7.039,15.933-11.489,25.635-13.059,2.628-.425,5.295-.586,7.955-.595,3.088-.01,3.094-4.81,0-4.8Z"/><path class="f" d="M333.413,82.249c-8.31.037-16.637,2.447-23.325,7.466-6.406,4.807-11.146,11.47-13.543,19.122-4.714,15.047-.111,33.009,12.527,42.783,12.481,9.653,31.439,10.567,45.04,2.68,13.833-8.022,19.756-24.626,17.438-40-2.425-16.081-15.363-29.041-31.433-31.509-2.223-.341-4.454-.533-6.703-.543-3.089-.014-3.093,4.786,0,4.8,7.454.033,14.735,2.204,20.743,6.678,5.471,4.074,9.53,9.989,11.54,16.489,4.046,13.087.404,28.751-10.348,37.463-10.531,8.532-27.368,9.345-39.189,2.879-12.353-6.757-18.322-21.361-16.228-35.109,1.05-6.895,4.151-13.402,9.025-18.41,5.019-5.156,11.587-8.397,18.667-9.558,1.912-.314,3.855-.422,5.79-.43,3.088-.014,3.094-4.814,0-4.8Z"/><path class="d" d="M342.806,70.395v-5.539h-18.785v5.539"/><path class="d" d="M325.028,2.4v61.123h16.771V2.4h-16.771Z"/><path class="h" d="M311.853,2.4v48.955c4.056,4.056,8.112,8.112,12.168,12.168h1.007V2.4h-13.175Z"/><path class="h" d="M341.8,2.4v61.123h1.007c4.056-4.056,8.112-8.112,12.168-12.168V2.4h-13.175Z"/><path class="f" d="M309.453,2.4v48.451c0,2.071,1.776,3.275,3.137,4.636,3.126,3.126,6.19,6.334,9.387,9.387,1.282,1.224,2.466,1.051,4.063,1.051h5.761c3.54,0,7.09.075,10.629,0,.982-.021,1.691-.353,2.422-1.051,1.599-1.526,3.13-3.13,4.693-4.693l4.693-4.693c.751-.751,1.541-1.479,2.26-2.26.69-.75.877-1.478.877-2.464V2.4c0-1.297-1.1-2.4-2.4-2.4h-43.121c-3.089,0-3.094,4.8,0,4.8h43.121l-2.4-2.4v48.955l.703-1.697c-4.056,4.056-8.112,8.112-12.168,12.168l1.697-.703c-6.262,0-12.523,0-18.785,0l1.697.703c-4.056-4.056-8.112-8.112-12.168-12.168l.703,1.697V2.4c0-3.089-4.8-3.094-4.8,0Z"/><path class="f" d="M322.628,2.4v61.123c0,3.089,4.8,3.094,4.8,0V2.4c0-3.089-4.8-3.094-4.8,0h0Z"/><path class="f" d="M339.4,2.4v61.123c0,3.089,4.8,3.094,4.8,0V2.4c0-3.089-4.8-3.094-4.8,0h0Z"/><path class="f" d="M321.615,64.856v5.539c0,.615.268,1.262.703,1.697.416.416,1.099.73,1.697.703,1.3-.058,2.4-1.055,2.4-2.4v-5.539c0-.615-.268-1.262-.703-1.697-.416-.416-1.099-.73-1.697-.703-1.3.058-2.4,1.055-2.4,2.4h0Z"/><path class="f" d="M345.213,70.395v-5.539c0-.615-.268-1.262-.703-1.697-.416-.416-1.099-.73-1.697-.703-1.3.058-2.4,1.055-2.4,2.4v5.539c0,.615.268,1.262.703,1.697.416.416,1.099.73,1.697.703,1.3-.058,2.4-1.055,2.4-2.4h0Z"/><path class="f" d="M326.343,132.889c5.027,3.537,13.342,2.071,15.117-4.36.783-2.838.028-6.068-2.142-8.108-2.056-1.932-4.83-2.483-7.548-2.697l.691,5.107c2.625-.389,5.109-1.514,6.688-3.714,1.443-2.01,1.794-4.908.97-7.231-1.934-5.453-9.757-6.511-13.55-2.339-.944,1.039-1.026,2.651,0,3.677.959.959,2.729,1.043,3.677,0,.787-.865,2.13-1.197,3.238-1.01,1.072.181,1.616.817,1.802,1.648.178.792.044,1.783-.543,2.493-.843,1.019-2.41,1.276-3.664,1.461-1.261.187-2.034,1.712-1.862,2.853.201,1.337,1.229,2.151,2.554,2.254,2.484.195,5.523,1.15,4.676,4.222-.874,3.165-5.237,2.829-7.478,1.252-1.149-.808-2.891-.207-3.557.933-.76,1.299-.219,2.747.933,3.557h0Z"/></g></svg>