<?xml version="1.0" encoding="iso-8859-1"?>
<!-- Uploaded to: SVG Repo, www.svgrepo.com, Generator: SVG Repo Mixer Tools -->
<svg fill="#000000" height="800px" width="800px" version="1.1" id="Layer_1" xmlns="http://www.w3.org/2000/svg" xmlns:xlink="http://www.w3.org/1999/xlink" 
	 viewBox="0 0 472.615 472.615" xml:space="preserve">
<g>
	<g>
		<path d="M0,166.861v305.755h472.615V166.861H0z M313.988,386.885l-14.135,13.702l-63.548-65.574l-63.548,65.574l-14.134-13.702
			l63.975-66.017l-63.975-66.016l14.134-13.702l63.548,65.574l63.548-65.574l14.135,13.702l-63.976,66.016L313.988,386.885z"/>
	</g>
</g>
<g>
	<g>
		<path d="M416.674,47.201V28.947C416.674,12.998,403.775,0,387.824,0s-28.948,12.998-28.948,28.947v18.255H113.707V28.947
			C113.707,12.998,100.809,0,84.858,0C68.907,0,55.91,12.998,55.91,28.947v18.255H0v99.967h472.615V47.201H416.674z"/>
	</g>
</g>
</svg>